<svg width="61" height="56" viewBox="0 0 48 48" fill="none" xmlns="http://www.w3.org/2000/svg">
<g filter="url(#filter0_d_485_202)">
<path d="M20.7878 28.392C18.3558 28.984 16.5158 29.592 15.2678 30.216C12.0518 31.88 9.73984 33.616 8.33184 35.424C6.92384 37.248 6.21184 39.576 6.19584 42.408C6.19584 43.736 6.41984 44.776 6.86784 45.528C7.29984 46.296 7.94784 46.68 8.81184 46.68C9.67584 46.68 10.4758 46.384 11.2118 45.792C11.9318 45.2 12.6758 44.344 13.4438 43.224C14.4678 41.688 15.4438 40.024 16.3718 38.232C17.3318 36.44 18.0358 35.016 18.4838 33.96C19.5398 31.496 20.3078 29.64 20.7878 28.392ZM31.6838 6.93601C31.9718 6.82401 32.4598 6.72001 33.1478 6.62401C33.8518 6.51201 34.3158 6.45601 34.5398 6.45601C34.7798 6.45601 34.8998 6.50401 34.8998 6.60001C34.8998 6.64801 34.8678 6.69601 34.8038 6.74401L34.5158 6.93601C34.1318 7.19201 33.2198 8.36001 31.7798 10.44C31.4758 10.888 31.1158 11.472 30.6998 12.192C30.2838 12.912 29.9798 13.432 29.7878 13.752C29.6118 14.072 29.2918 14.696 28.8278 15.624C28.3798 16.536 28.0918 17.12 27.9638 17.376C27.8518 17.632 27.5238 18.336 26.9798 19.488C26.4358 20.64 26.0998 21.352 25.9718 21.624L23.3318 27.24C25.3158 26.76 26.7878 26.272 27.7478 25.776C28.7238 25.264 29.7798 24.536 30.9158 23.592C31.9878 22.648 32.7718 21.8 33.2678 21.048C33.3318 20.952 33.3958 20.904 33.4598 20.904C33.5238 20.904 33.5558 20.928 33.5558 20.976C33.5558 21.024 33.5398 21.08 33.5078 21.144C32.6118 22.328 31.7398 23.304 30.8918 24.072C30.0438 24.824 29.0358 25.512 27.8678 26.136C26.7158 26.76 25.0918 27.336 22.9958 27.864C19.6838 34.728 16.8678 39.784 14.5478 43.032C12.4838 45.912 10.2918 47.352 7.97184 47.352C6.81984 47.352 5.92384 46.928 5.28384 46.08C4.64384 45.232 4.32384 43.96 4.32384 42.264C4.32384 40.04 5.17184 37.808 6.86784 35.568C7.71584 34.448 8.85184 33.36 10.2758 32.304C11.6998 31.248 13.2678 30.336 14.9798 29.568C16.6918 28.816 18.7238 28.2 21.0758 27.72C21.9078 25.64 22.7558 23.736 23.6198 22.008C25.7798 17.432 27.7958 13.736 29.6678 10.92L31.8758 7.56001C31.3478 7.72001 30.4118 7.88801 29.0678 8.06401C27.7398 8.24001 26.7238 8.34401 26.0198 8.37601C25.6038 8.90401 24.8838 9.67201 23.8598 10.68C22.8358 11.672 21.9078 12.52 21.0758 13.224C20.8198 13.48 20.6438 13.608 20.5478 13.608C20.4518 13.608 20.4038 13.576 20.4038 13.512C20.4038 13.4 20.5878 13.2 20.9558 12.912C21.3238 12.608 22.0278 11.928 23.0678 10.872C24.1078 9.80001 24.8678 8.96801 25.3478 8.37601C22.0198 8.37601 20.3558 7.83201 20.3558 6.74401C20.3558 6.13601 20.6998 5.58401 21.3878 5.08801C22.0918 4.57601 22.8438 4.20801 23.6438 3.98401C24.4598 3.74401 25.1558 3.62401 25.7318 3.62401C27.0758 3.62401 27.7478 4.07201 27.7478 4.96801C27.7478 5.49601 27.2998 6.45601 26.4038 7.84801C28.5798 7.73601 30.3398 7.43201 31.6838 6.93601ZM25.7318 7.89601C26.3398 7.01601 26.6438 6.32801 26.6438 5.83201C26.6438 5.32001 26.4678 4.92001 26.1158 4.63201C25.7638 4.34401 25.2598 4.20001 24.6038 4.20001C23.9478 4.20001 23.2998 4.39201 22.6598 4.77601C22.0198 5.14401 21.6998 5.72001 21.6998 6.50401C21.6998 6.87201 21.7958 7.12001 21.9878 7.24801C22.1798 7.37601 22.3398 7.48001 22.4678 7.56001C22.5958 7.62401 22.7718 7.68001 22.9958 7.72801C23.2358 7.76001 23.4358 7.79201 23.5958 7.82401C23.7718 7.84001 24.0038 7.85601 24.2918 7.87201C24.6118 7.88801 24.8518 7.89601 25.0118 7.89601H25.7318ZM46.6623 7.08001C45.8943 9.17601 44.4223 12.264 42.2463 16.344C42.2463 16.344 43.7663 16.28 46.8063 16.152C46.8703 16.152 46.9023 16.168 46.9023 16.2C46.9023 16.28 46.7743 16.424 46.5183 16.632C46.2463 16.824 46.0543 16.952 45.9423 17.016C45.5743 17.208 44.1663 17.304 41.7183 17.304C40.5503 19.48 39.4063 21.536 38.2863 23.472C37.1663 25.392 36.4383 26.584 36.1023 27.048C35.8463 27.368 35.5903 27.528 35.3343 27.528C34.5663 27.624 33.7823 27.672 32.9823 27.672H32.7903C32.6943 27.672 32.6463 27.624 32.6463 27.528C32.6463 27.496 32.7023 27.464 32.8143 27.432C33.2463 27.272 33.5903 27 33.8463 26.616C35.6543 24.104 37.5903 21.016 39.6543 17.352C37.5743 17.352 36.1743 17.512 35.4543 17.832C35.3103 17.896 35.2143 17.928 35.1663 17.928C35.1183 17.928 35.0943 17.912 35.0943 17.88C35.0943 17.624 35.6543 17.256 36.7743 16.776C36.9343 16.712 37.3103 16.632 37.9023 16.536C38.5103 16.44 39.2703 16.392 40.1823 16.392C42.3743 12.344 43.8463 9.25601 44.5983 7.12801C44.1503 7.12801 43.3903 7.16001 42.3183 7.22401C41.2623 7.27201 40.3263 7.36001 39.5103 7.48801C38.7103 7.61601 38.1183 7.75201 37.7343 7.89601C37.3663 8.02401 37.0703 8.15201 36.8463 8.28001C36.6383 8.40801 36.4943 8.51201 36.4143 8.59201C36.3343 8.67201 36.2783 8.71201 36.2463 8.71201C36.1503 8.71201 36.1023 8.66401 36.1023 8.56801C36.1023 8.47201 36.2783 8.24801 36.6303 7.89601C37.3023 7.22401 38.2463 6.77601 39.4623 6.55201C40.6783 6.31201 42.5023 6.16801 44.9343 6.12001C45.1583 5.40001 45.2703 4.77601 45.2703 4.24801C45.2703 2.36 44.4863 1.416 42.9183 1.416C42.4703 1.416 42.1103 1.464 41.8383 1.56C41.5823 1.65601 41.3903 1.72801 41.2623 1.77601C41.1343 1.824 40.9983 1.904 40.8543 2.01601C40.7263 2.11201 40.6303 2.184 40.5663 2.232C40.5343 2.264 40.4543 2.33601 40.3263 2.44801L40.1343 2.61601C39.9103 2.84 39.7823 2.952 39.7503 2.952C39.6543 2.952 39.6063 2.92 39.6063 2.85601C39.6063 2.79201 39.7343 2.63201 39.9903 2.37601C41.0143 1.416 42.1183 0.936004 43.3023 0.936004C45.9583 0.936004 47.2863 2.12 47.2863 4.48801C47.2863 5.03201 47.2063 5.56001 47.0463 6.07201C49.8463 6.02401 52.5183 5.84801 55.0623 5.54401C55.5103 5.48001 55.8783 5.44801 56.1663 5.44801H56.3583C56.5503 5.44801 56.6463 5.48001 56.6463 5.54401C56.6463 5.59201 56.5983 5.64001 56.5023 5.68801C55.7183 6.21601 54.5583 6.56801 53.0223 6.74401C51.4863 6.90401 49.3663 7.01601 46.6623 7.08001Z" fill="#E6E6E6"/>
</g>
<defs>
<filter id="filter0_d_485_202" x="0.32373" y="0.936035" width="60.3225" height="54.416" filterUnits="userSpaceOnUse" color-interpolation-filters="sRGB">
<feFlood flood-opacity="0" result="BackgroundImageFix"/>
<feColorMatrix in="SourceAlpha" type="matrix" values="0 0 0 0 0 0 0 0 0 0 0 0 0 0 0 0 0 0 127 0" result="hardAlpha"/>
<feOffset dy="4"/>
<feGaussianBlur stdDeviation="2"/>
<feComposite in2="hardAlpha" operator="out"/>
<feColorMatrix type="matrix" values="0 0 0 0 0 0 0 0 0 0 0 0 0 0 0 0 0 0 0.25 0"/>
<feBlend mode="normal" in2="BackgroundImageFix" result="effect1_dropShadow_485_202"/>
<feBlend mode="normal" in="SourceGraphic" in2="effect1_dropShadow_485_202" result="shape"/>
</filter>
</defs>
</svg>
